<svg id="Layer_1" data-name="Layer 1" xmlns="http://www.w3.org/2000/svg" xmlns:xlink="http://www.w3.org/1999/xlink" viewBox="0 0 255.49 255.49"><defs><style>.cls-1{fill:url(#radial-gradient);}.cls-2{fill:#19c3a1;}.cls-3{fill:#484848;}.cls-4{fill:#fff;}</style><radialGradient id="radial-gradient" cx="74.69" cy="409.05" r="386.32" gradientUnits="userSpaceOnUse"><stop offset="0" stop-color="#ffc89f"/><stop offset="1" stop-color="#ffe5a3"/></radialGradient></defs><title>icon</title><rect class="cls-1" width="255.49" height="255.49" rx="12"/><path class="cls-2" d="M188.1,40.77H67.6a13.34,13.34,0,0,0-13.29,13.3V192a16.91,16.91,0,0,0,4.76,11.75L73.46,218.6a6.93,6.93,0,0,0,10,0l14.88-15.33a6.73,6.73,0,0,1,9.68,0l14.87,15.33a6.93,6.93,0,0,0,10,0l14.88-15.33a6.73,6.73,0,0,1,9.68,0l14.88,15.33a6.93,6.93,0,0,0,10,0l14.39-14.83A16.91,16.91,0,0,0,201.39,192v-138A13.34,13.34,0,0,0,188.1,40.77Zm-26.23,79.08a21.94,21.94,0,0,1-4,11.08c-1.17,1.81-18.32,16.12-26.26,22.7a6.3,6.3,0,0,1-8,0c-7.46-6.1-22.9-18.81-24.48-20.93a24.94,24.94,0,0,1-5-11.1c-1-6.56.27-12.59,4.64-17.7a17.81,17.81,0,0,1,16.68-6.29,17.4,17.4,0,0,1,10.69,5.86l0,0a2.37,2.37,0,0,0,3.5,0l0,0c5.29-5.56,11.66-7.43,19-5.12,6.85,2.17,10.85,7.17,12.65,14A27.88,27.88,0,0,1,161.87,119.85Z"/><path class="cls-3" d="M156.61,178.68a63.26,63.26,0,0,0,9.64,2.2,76.7,76.7,0,0,0,17-1.64c11.11-2.45,20.56-9.38,25.28-13.92s9.79-10.3,10.59-24.23-3.45-23.13-8.29-28-9.52-5.36-9.52-5.36a60.64,60.64,0,0,1-.59,12.5c-1,6.79-4.11,10.73-17.28,15.19s-35.27,14.92-37,29.41C145.11,168.57,153.28,176.51,156.61,178.68Z"/><path class="cls-4" d="M149.58,166.55c-.59-1.65-2.08-2.61-2.94-2.09-2.46,1.51-11.53,7.28-7.59,7.87,2.87.43,7-.69,9.59-1.58C149.65,170.57,150.18,168.2,149.58,166.55Z"/><path class="cls-4" d="M161.19,180.54c-.23.51-.82,1.77-1,2.16-.7,1.86-.75,3.15.83,2.65,1.85-.58,5.64-3.64,7.37-5.12C166.09,178.22,161.69,179.47,161.19,180.54Z"/><path class="cls-4" d="M150.11,176.36a2.13,2.13,0,0,1-.22.31c-.13.17-.24.32-.37.51.13-.19.24-.34.37-.51-2.61,2.92-5.31,6.51-2.57,6.28,3.59-.29,8.94-3.66,10.87-5C156.2,175.07,153.39,172.06,150.11,176.36Z"/></svg>